<?xml version="1.0" standalone="no"?>
<!DOCTYPE svg PUBLIC "-//W3C//DTD SVG 1.1//EN" "http://www.w3.org/Graphics/SVG/1.1/DTD/svg11.dtd" >
<svg xmlns="http://www.w3.org/2000/svg">
<metadata></metadata>
<defs>
<font id="saberregular" horiz-adv-x="1705" >
<font-face units-per-em="2048" ascent="1536" descent="-512" />
<missing-glyph horiz-adv-x="1024" />
<glyph horiz-adv-x="2048" />
<glyph horiz-adv-x="2048" />
<glyph unicode="&#xd;" horiz-adv-x="1024" />
<glyph unicode=" "  horiz-adv-x="1024" />
<glyph unicode="&#x09;" horiz-adv-x="1024" />
<glyph unicode="&#xa0;" horiz-adv-x="1024" />
<glyph unicode="0" horiz-adv-x="1359" d="M0 750q0 156 49 293t130 238t186.5 160.5t220.5 59.5q113 0 219 -59.5t189 -160.5t132.5 -238.5t49.5 -292.5q0 -156 -49.5 -292t-132.5 -237.5t-189.5 -161t-218.5 -59.5q-115 0 -220.5 59.5t-186.5 161t-130 237.5t-49 292zM303 750q0 -123 22.5 -230.5t60.5 -187.5 t89.5 -126t110.5 -46q57 0 109.5 46t90 126t60 187.5t22.5 230.5t-22.5 230t-60 188t-90 127t-109.5 46q-59 0 -110.5 -46t-89.5 -127t-60.5 -188.5t-22.5 -229.5z" />
<glyph unicode="1" horiz-adv-x="829" d="M0 1341v160h227h164h193v-1501h-357v1341h-227z" />
<glyph unicode="2" horiz-adv-x="1280" d="M0 0v717h354v-557h727v-160h-727h-241h-113zM0 1339v160h584q94 0 164.5 -18.5t124 -48t89 -68.5t58.5 -78q53 -94 61 -211v-295h-354v215q0 131 -35 201t-76 102q-49 37 -110 41h-506z" />
<glyph unicode="3" horiz-adv-x="1284" d="M0 0v160h627q53 0 80.5 30.5t37.5 67.5q12 43 11 100v783q2 55 -11 100q-10 37 -37.5 68.5t-80.5 31.5h-627v160h627q135 -4 241 -43q45 -16 89 -42.5t78 -64.5t54.5 -90.5t20.5 -119.5v-783q0 -68 -20.5 -120t-54.5 -89.5t-78 -63.5t-89 -42q-106 -39 -241 -43h-627z M221 672v159h406v-159h-406z" />
<glyph unicode="4" horiz-adv-x="1257" d="M0 393v158l688 950h39h184h170v-1501h-354v1245l-504 -694h334v-158h-448h-109z" />
<glyph unicode="5" horiz-adv-x="1275" d="M0 -2v160h508q61 4 110 41q41 33 76 101.5t35 201.5v217h354v-295q-6 -119 -59 -213q-23 -41 -58.5 -79t-89 -67.5t-125 -48t-165.5 -18.5h-586zM0 782v719h113h241h729v-160h-729v-559h-354z" />
<glyph unicode="6" horiz-adv-x="1265" d="M0 360v783q0 68 20.5 119t54.5 89t78 64.5t89 42.5q106 39 241 43h291v-160h-291q-55 0 -81.5 -31.5t-36.5 -68.5q-12 -43 -11 -98v-783q-2 -57 11 -100q10 -37 36.5 -67.5t81.5 -30.5h140q43 0 67.5 19.5t37.5 46t18.5 56t5.5 50.5v158q0 18 -4.5 48.5t-17.5 58.5 t-38.5 48.5t-68.5 20.5h-58v159h58h2h6q16 0 56 -3t91 -14t107.5 -33.5t103.5 -59.5t80 -92.5t37 -132.5v-158h-2q-6 -82 -43 -139.5t-89 -94.5t-112.5 -57t-112 -29.5t-87 -10.5t-37.5 -1h-140q-135 4 -241 43q-45 16 -89 42t-78 63.5t-54.5 90t-20.5 119.5z" />
<glyph unicode="7" horiz-adv-x="1556" d="M0 0l887 1214h438l-887 -1214h-438zM20 1341v160h1076h325v-129v-31h-1401z" />
<glyph unicode="8" horiz-adv-x="1288" d="M-6 336v149h2q4 100 53 164t115 101q-66 37 -114 99t-54 161h-2v149h2q4 78 35.5 134.5t79 94t103.5 59t107.5 33t91.5 15.5t56 4h6h2h58h26h57h9q14 0 54 -3t91 -15.5t107.5 -34t103.5 -58t80 -93t37 -134.5v-155q-8 -98 -55.5 -160t-112.5 -96q66 -37 114 -99.5 t54 -161.5v-157q-6 -82 -43 -139.5t-89.5 -94.5t-112.5 -57.5t-111.5 -29.5t-87 -10t-38.5 -1h-141q-131 4 -233 41q-45 14 -88 38.5t-77 60.5t-56.5 84t-26.5 112h-2zM348 336q0 -20 5 -50t18.5 -57.5t38 -48t67.5 -20.5h141q41 0 67 19.5t39 46t18.5 56t5.5 50.5h-3v157h3 q0 18 -4.5 49t-17.5 59t-38.5 48.5t-69.5 20.5h-57h-26h-58q-43 0 -68.5 -21.5t-39 -50.5t-17.5 -59.5t-4 -49.5v-149zM348 1010q0 -20 5 -50t18.5 -58t38 -48t67.5 -20h141q41 0 67 19t39 46t18.5 56.5t5.5 50.5h-3v155h3q0 20 -4.5 50t-17.5 58.5t-38.5 49t-69.5 20.5h-57 h-26h-58q-43 0 -68.5 -21.5t-39 -50t-17.5 -59t-4 -49.5v-149z" />
<glyph unicode="9" horiz-adv-x="1310" d="M0 1010v155q6 82 43 139.5t90 94.5t112.5 56.5t112 29.5t87 11t36.5 1h142q133 -4 239 -43q45 -16 89 -43t78 -64.5t54.5 -89t20.5 -118.5v-781q0 -68 -20.5 -120t-54.5 -89.5t-78 -63.5t-89 -42q-106 -39 -239 -43h-291v160h291q53 0 79.5 30.5t36.5 67.5q12 43 11 100 v781q2 55 -11 98q-10 37 -36.5 68.5t-79.5 31.5h-142q-41 0 -66.5 -19.5t-39 -46t-17.5 -56t-4 -50.5v-155h-2q0 -20 4 -50t17.5 -59t39 -49.5t68.5 -20.5h58v-159h-58h-8q-16 0 -55 4t-90.5 15t-107.5 32.5t-103 59.5t-80 93.5t-37 133.5z" />
<glyph unicode="A" d="M0 0l745 1501l748 -1501h-1167l75 166h607l-359 782l-477 -948h-172z" />
<glyph unicode="B" horiz-adv-x="1363" d="M0 0v850l311 2q137 0 210 38t106 85q37 53 39 123q0 49 -12.5 87t-33 65.5t-45 46t-51.5 30.5q-61 27 -139 27h-385v147h489q117 0 214.5 -21.5t168 -66.5t109.5 -114.5t39 -168.5q0 -98 -35 -161.5t-76 -102.5q-49 -44 -110 -69q55 -2 127.5 -25.5t136 -77t107.5 -140.5 t44 -216q0 -68 -24.5 -117t-63.5 -85t-90 -60.5t-102 -38.5q-125 -37 -281 -37h-653zM354 160h264q70 6 123 35q47 25 85 72.5t38 138.5q-2 109 -40 165t-83 84q-53 31 -120 37h-265z" />
<glyph unicode="C" horiz-adv-x="1394" d="M0 741q0 145 34 256t89 192t125.5 135t144.5 89q172 82 395 88h213h111h31v-160h-31h-111h-108q-152 -2 -268 -65q-51 -27 -99.5 -70t-86.5 -105.5t-60.5 -148.5t-22.5 -200q0 -111 21.5 -196t56.5 -147.5t80 -105.5t92 -70q111 -66 252 -73h285v-160h-385 q-213 0 -379 78q-72 33 -139.5 86t-120.5 133t-86 189.5t-33 254.5z" />
<glyph unicode="D" horiz-adv-x="1466" d="M0 0v102v58v1054h354v-1052q31 2 82 11t111.5 32.5t122 63.5t110.5 104.5t81 157t32 219.5q0 115 -26.5 200.5t-69.5 149t-97.5 106.5t-111.5 70q-135 63 -305 65h-283v160h401q250 -6 447 -88q84 -35 165 -89t143.5 -135t101 -191.5t38.5 -256.5q0 -145 -36.5 -254.5 t-97 -189.5t-138.5 -133t-158 -86q-188 -78 -430 -78h-436z" />
<glyph unicode="E" horiz-adv-x="1409" d="M0 741q0 145 35 256t93 192t131 135t151 89q180 82 411 88h371v-160h-260q-158 -2 -281 -65q-53 -27 -103 -70t-90 -105.5t-63.5 -148.5t-23.5 -200q0 -111 22.5 -196t59 -147.5t84 -105.5t96.5 -70q115 -66 262 -73h297v-160h-401q-223 0 -396 78q-74 33 -145.5 86 t-126.5 133t-89 189.5t-34 254.5zM500 670v159h522v-159h-522z" />
<glyph unicode="F" horiz-adv-x="1234" d="M0 -2v1216h354v-305h527v-159h-527v-752h-354zM0 1341v160h1126v-160h-1126z" />
<glyph unicode="G" horiz-adv-x="1507" d="M0 741q0 145 38 256t100.5 192t142 135t163.5 89q195 82 445 88h401v-160h-282q-170 -2 -303 -65q-57 -27 -111.5 -70t-97.5 -105.5t-69 -148.5t-26 -200q0 -111 25 -196t64.5 -147.5t90 -105.5t103.5 -70q125 -66 285 -73h321v-160h-434q-240 0 -428 78 q-80 33 -157.5 86t-137 133t-96.5 189.5t-37 254.5zM653 539v159h283h291h63v-411h-354v252h-283z" />
<glyph unicode="H" horiz-adv-x="1472" d="M0 0v885h315h39h514v616h355v-1501h-355v725h-514v-725h-354zM0 1012v489h354v-489h-354z" />
<glyph unicode="I" horiz-adv-x="632" d="M0 0v1501h354v-1501h-354z" />
<glyph unicode="J" horiz-adv-x="874" d="M0 137q96 57 144.5 129t70.5 135q25 74 27 148v239v332v381h350v-381v-332v-204q0 -82 -22.5 -150.5t-58.5 -126t-82 -102.5t-93 -78q-113 -82 -256 -127z" />
<glyph unicode="K" horiz-adv-x="1587" d="M0 0v1501h354v-1501h-354zM434 688h2l688 813h209l-565 -667l616 -834h-442l-506 686z" />
<glyph unicode="L" horiz-adv-x="1284" d="M0 0v1501h354v-1341h764v-160h-764h-28h-326z" />
<glyph unicode="M" horiz-adv-x="1855" d="M0 0v1501h29h131h243l488 -1501h-373l-358 1102v-1102h-160zM883 426l399 1075h25h41h313v-1501h-354v1108l-344 -926z" />
<glyph unicode="N" horiz-adv-x="1404" d="M0 0v1372v129h160h174l835 -1501h-405l-604 1085v-1085h-160zM1040 479v1022h160v-1308z" />
<glyph unicode="O" horiz-adv-x="1662" d="M0 750q0 156 57.5 293t156.5 238t232 160.5t285 59.5t285 -59.5t232.5 -160.5t156.5 -238.5t57 -292.5q0 -156 -57 -292t-156.5 -237.5t-232.5 -161t-285 -59.5t-285 59.5t-232 161t-156.5 237.5t-57.5 292zM354 750q0 -123 30 -230.5t81 -187.5t119.5 -126t146.5 -46 t146.5 46t120 126t81 187.5t29.5 230.5t-29.5 230t-81 188t-120 127t-146.5 46t-146.5 -46t-119.5 -127t-81 -188.5t-30 -229.5z" />
<glyph unicode="P" horiz-adv-x="1253" d="M0 0v850l313 2q68 0 119 10t88 27.5t61.5 40t41.5 47.5q37 55 41 127q0 100 -43 151.5t-97 73.5q-61 25 -139 25h-385v147h492q117 0 213 -25.5t166.5 -73.5t109.5 -116.5t39 -155.5q0 -18 -1 -35.5t-3 -33.5l-4 -12q0 -4 -2 -9q0 -4 -1 -5t-1 -3v-2q-12 -35 -48 -96.5 t-120 -116.5q-8 -6 -15.5 -11t-15.5 -9q-4 -2 -6 -4t-6 -5l-13 -6l-12 -6l-8 -4l-8 -4q-8 -2 -17 -8l-18 -6l-12 -6q-4 -2 -10.5 -3.5t-10.5 -3.5t-5 -2t-5 -2q-8 -2 -15.5 -4t-15.5 -4q-4 -2 -6 -2t-6 -2l-25 -6q-4 0 -6 -1t-4 -1l-37 -6q-4 -2 -12 -2l-31 -7h-12 q-10 -2 -20.5 -3t-22.5 -1q-2 -2 -6 -2q-10 0 -20.5 -1t-20.5 -1h-12q-12 0 -24.5 -1t-25.5 -1l-2 -532h2v-160h-356z" />
<glyph unicode="Q" horiz-adv-x="1636" d="M0 750q0 156 57.5 293t156.5 238t232.5 160.5t284.5 59.5q152 0 285 -59.5t232.5 -160.5t156.5 -238.5t57 -292.5q0 -141 -48 -268.5t-134 -227.5l-186 336q6 39 10 79t4 81q0 123 -29.5 230t-81 188t-120 127t-146.5 46t-146.5 -46t-119.5 -127t-81 -188.5t-30 -229.5 q0 -123 30 -230.5t81 -187.5t119.5 -126t146.5 -46q12 0 24.5 1t22.5 3l-235 424h4h401l94 -168l144 -256q-92 -76 -197 -115v-2l-37 -12h-2q-10 -4 -20 -6t-21 -6h-2q-43 -10 -86 -16.5t-90 -6.5q-152 0 -285 59.5t-232 161t-156.5 237.5t-57.5 292z" />
<glyph unicode="R" horiz-adv-x="1347" d="M0 0v850l313 2q68 0 119 10t88 27.5t61.5 40t41.5 47.5q37 55 41 127q0 49 -12.5 87t-32 64.5t-44 44t-51.5 29.5q-61 25 -139 27h-385v145h492q117 0 214 -25.5t167.5 -73.5t109.5 -116.5t39 -155.5q0 -37 -6 -67v-2l-4 -12v-7l-2 -2q0 -6 -2 -8v-2q-12 -35 -48 -95.5 t-118 -117.5h-2q-10 -10 -31 -20l-12 -6q-4 -4 -13 -9l-12 -6l-8 -4l-8 -4l415 -768h-403l-377 694h-35l-2 -534h2v-160h-356z" />
<glyph unicode="S" horiz-adv-x="1288" d="M0 0v160h506q61 4 110 41q41 33 77 101.5t36 201.5v215h354v-293q-8 -119 -61 -213q-23 -41 -58.5 -79t-89 -67.5t-124 -48t-164.5 -18.5h-586zM0 782v293q8 119 61 213q23 39 59 78t88 68.5t123.5 48t166.5 18.5h585v-160h-505q-63 -4 -113 -41q-41 -33 -76 -102.5 t-35 -200.5v-215h-354z" />
<glyph unicode="T" horiz-adv-x="1583" d="M0 1341v160h1333v-160h-1333zM489 -2v1216h355v-1216h-355z" />
<glyph unicode="U" horiz-adv-x="1605" d="M0 1018v483h354v-483q0 -152 17.5 -265.5t46 -195.5t65.5 -137t76 -88q90 -80 205 -80q88 0 152.5 37t112.5 96t79 137t51 158q45 188 47 428v289v104h158v-104v-289q0 -102 -4 -224t-25.5 -245t-65.5 -237.5t-123 -203.5t-200 -142.5t-295 -53.5q-131 0 -228 44 t-168 114.5t-117 162t-75 187.5q-63 208 -63 469v39z" />
<glyph unicode="V" d="M0 1501h383l614 -1501h-383zM983 389l444 1112h170l-528 -1323z" />
<glyph unicode="W" horiz-adv-x="2246" d="M0 1501h375l422 -1255l129 368l84 -245l-129 -369h-170h-205zM766 1501h373l424 -1255l442 1255h168l-528 -1501h-168h-205zM1257 1501h152l-78 -219z" />
<glyph unicode="X" horiz-adv-x="1404" d="M0 0l385 573l82 -161l-274 -412h-193zM51 1501h398l761 -1501h-397zM766 1145l240 356h190l-346 -518z" />
<glyph unicode="Y" d="M0 1501h426l520 -778v-4v-324v-395h-354v616zM924 965l372 536h195l-473 -678z" />
<glyph unicode="Z" horiz-adv-x="1529" d="M0 0v160l774 1044h443l-777 -1044h887v-160h-1003h-324zM0 1341v160h1327v-160h-1327z" />
<glyph unicode="a" horiz-adv-x="1091" d="M0 346q0 70 20.5 122t53 90t74.5 64.5t88 43.5q102 39 235 45v-111q-53 -6 -94 -33q-35 -23 -63.5 -68.5t-28.5 -131.5q0 -84 24.5 -135.5t64.5 -78t92 -34.5t107 -8h35v378q0 92 -16.5 161t-42 119t-59 83t-68.5 53q-82 49 -186 49h-33v113h33q131 0 229 -24.5 t171 -65.5t120 -93.5t78 -105.5q70 -127 71 -289v-489h-219h-113h-69h-14q-132 0 -238 35q-47 14 -93 38.5t-81 61.5t-56.5 89t-21.5 122z" />
<glyph unicode="b" horiz-adv-x="1167" d="M0 0v1499h297v-1388h57q100 6 183 45q35 16 67.5 42.5t59 65.5t42 91.5t15.5 121.5q0 119 -38 189.5t-89 107.5t-100.5 48.5t-73.5 11.5v112q25 0 79 -3t120.5 -17.5t138 -46t131 -89t97.5 -143.5t38 -209q-10 -119 -84 -213q-31 -41 -80 -80t-119.5 -70.5t-166 -52 t-220.5 -22.5h-266h-88z" />
<glyph unicode="c" horiz-adv-x="999" d="M4 473q0 121 40 203t102.5 134t138 80t146.5 40t127 14t83 2h207v-112h-207q-96 -6 -170 -43q-31 -16 -61.5 -42t-54 -65t-38 -90t-14.5 -121q0 -66 14.5 -117t38 -89t54 -63.5t61.5 -43.5q74 -41 170 -49h207v-111h-207q-178 4 -319 55q-59 20 -117 55t-103 85.5 t-71.5 119t-26.5 158.5z" />
<glyph unicode="d" horiz-adv-x="1167" d="M0 438q0 123 38 209t97.5 143.5t131 89t138 46t121 17.5t78.5 3v-112q-25 0 -74 -11.5t-100 -48.5t-89 -107.5t-38 -189.5q0 -70 15.5 -122t41 -91t58.5 -65.5t67 -42.5q82 -39 185 -45h57v1388h297v-1499h-88h-266q-127 2 -222.5 22.5t-166 52t-118.5 70.5t-79 80 q-74 94 -84 213z" />
<glyph unicode="e" horiz-adv-x="931" d="M0 465q0 92 30.5 179t91 154.5t147.5 107.5t198 40q113 0 181.5 -34.5t106.5 -90t50 -126t12 -142.5h-16h-101h-352v111h256q0 53 -16 96q-14 35 -45 65.5t-88 30.5q-59 0 -103.5 -32.5t-75 -82t-46 -108t-15.5 -109.5t17.5 -117.5t55.5 -126t96 -100.5t138 -41 q37 0 76 13q35 10 74 33.5t78 70.5l73 -82q-37 -51 -94 -88q-49 -33 -128 -59.5t-189 -26.5q-111 0 -190 38t-128 101.5t-71.5 147.5t-22.5 178z" />
<glyph unicode="f" horiz-adv-x="821" d="M0 836v110h641v-110h-188v-836h-299v836h-154zM154 1036v33q10 119 71 215q27 39 67 78t98.5 69.5t135 50t179.5 19.5h4h2h100v-110h-100q-74 -4 -129 -41q-49 -31 -89 -95.5t-40 -185.5v-33h-299z" />
<glyph unicode="g" horiz-adv-x="1136" d="M0 438q0 123 38 209t97.5 143.5t131 89t138 46t121 17.5t78.5 3v-112q-25 -2 -74 -13.5t-100 -48.5t-89 -107.5t-38 -189.5q0 -70 15.5 -122t41 -90t58.5 -64.5t67 -42.5q82 -39 185 -45h57v833h297v-1046q-4 -119 -43 -202t-98.5 -137.5t-130 -84t-137 -44t-120 -17.5 t-75.5 -3v113q25 2 75 16.5t102 54t91 112.5t39 192v100h-57v2q-127 2 -222.5 22.5t-166 52t-118.5 70.5t-79 80q-74 96 -84 213z" />
<glyph unicode="h" horiz-adv-x="1196" d="M0 0v1501h299v-1501h-299zM422 836v112q23 0 77 -3t121.5 -17.5t139 -46t131 -89t97.5 -143.5t38 -209v-2v-438h-299v438q0 119 -39 196t-90 121t-101.5 61.5t-74.5 19.5z" />
<glyph unicode="i" horiz-adv-x="503" d="M0 0v944h297v-944h-297zM0 1065v272h297v-272h-297z" />
<glyph unicode="j" horiz-adv-x="526" d="M-225 -492q84 72 128 159t66 163q25 88 29 176v940h295v-940q0 -70 -20.5 -132t-52.5 -117.5t-74 -102.5t-85 -86q-102 -90 -231 -158zM-2 1067v268h295v-268h-295z" />
<glyph unicode="k" horiz-adv-x="1284" d="M0 0v1501h299v-1501h-299zM360 514l537 432h178l-416 -334h3l454 -612h-371l-317 426h2h-2z" />
<glyph unicode="l" horiz-adv-x="530" d="M0 0v1501h299v-1501h-299z" />
<glyph unicode="m" horiz-adv-x="1708" d="M0 0v358q4 164 57 293q23 55 58 107.5t85 93.5t119.5 66.5t159.5 25.5q47 -2 99 -16q43 -12 94 -38t100 -75q47 49 97.5 74.5t91.5 38.5q49 14 96 16q117 0 197.5 -40t134 -101.5t83 -135t44 -138t17.5 -111.5t3 -58v-360h-297v360q0 51 -3 131t-19.5 156t-49 131.5 t-92.5 55.5q-31 0 -52.5 -20.5t-37.5 -54.5t-27.5 -76t-17.5 -87q-16 -104 -16 -238v-358h-297v358q-4 133 -23 238q-8 45 -20.5 87t-29.5 76t-39.5 54.5t-53.5 20.5q-59 0 -92 -55.5t-49.5 -131.5t-19.5 -155.5t-3 -131.5v-2v-358h-297z" />
<glyph unicode="n" horiz-adv-x="1105" d="M0 0v360q0 6 3 52.5t16.5 112t43 139t83 136t135 104.5t200.5 42q123 -6 221 -69q41 -27 81 -70t72 -105.5t51.5 -147.5t19.5 -196v-360h-297v360q-4 133 -23 238q-8 45 -20.5 87t-29.5 76t-39.5 54.5t-53.5 20.5q-59 0 -93 -55.5t-49.5 -131.5t-18.5 -155.5t-3 -131.5 l-2 -2v-358h-297z" />
<glyph unicode="o" horiz-adv-x="1083" d="M0 473q0 98 36 184t97.5 150.5t143.5 101.5t176 37t177 -37t144.5 -101.5t97 -150.5t35.5 -184t-35.5 -184t-97 -150.5t-144.5 -101.5t-177 -37t-176 37t-143.5 101.5t-97.5 150.5t-36 184zM297 473q0 -76 12.5 -141.5t34 -114.5t49 -77.5t60.5 -28.5t61.5 28.5t50 77.5 t33.5 114.5t12 141.5q0 74 -12 139.5t-33.5 114.5t-50.5 78t-61 29q-33 0 -60.5 -29t-49 -78t-34 -114.5t-12.5 -139.5z" />
<glyph unicode="p" horiz-adv-x="1204" d="M0 -553v1499h88h266v-2q125 -4 220.5 -23.5t166 -51t119.5 -70.5t80 -80q74 -96 84 -213q0 -123 -38 -209t-97.5 -142.5t-131 -88t-138 -46t-121 -17.5t-78.5 -3v113q25 0 74 11t100 48t89 107.5t38 189.5q0 68 -15.5 120t-42 91t-59.5 65.5t-67 42.5q-82 39 -183 46h-57 v-1387h-297z" />
<glyph unicode="q" horiz-adv-x="1230" d="M0 506q10 117 84 213q31 41 79 80t118.5 70.5t166 51t220.5 23.5v2h268h88v-1499h-297v1387h-59q-102 -6 -183 -46q-35 -16 -67.5 -42.5t-58 -65.5t-41 -91t-15.5 -120q0 -119 38 -189.5t89 -107.5t100.5 -48t73.5 -11v-113q-25 0 -79 3t-120.5 17.5t-138 46t-131 88 t-97.5 142.5t-38 209z" />
<glyph unicode="r" horiz-adv-x="878" d="M0 0v408q8 143 72 258q27 49 68.5 97t102 86t142.5 63.5t190 31.5v2h150v-110h-102q-92 -8 -164 -58q-61 -41 -111.5 -128t-50.5 -242v-408h-297z" />
<glyph unicode="s" horiz-adv-x="821" d="M0 2v111h172q70 0 108.5 27.5t55.5 62.5q20 39 22 92v170h297v-170q0 -61 -20.5 -105.5t-54 -77t-77.5 -53t-89 -32.5q-93 -25 -209 -25h-33h-172zM0 481v172q0 61 20.5 105.5t54.5 76t78 52t89 33.5q90 25 202 25q19 0 39 -1h172v-110h-172q-72 0 -109.5 -28t-54.5 -63 q-20 -39 -22 -90v-172h-297z" />
<glyph unicode="t" horiz-adv-x="890" d="M0 936v125h643v-125h-133v-410q0 -131 19.5 -208.5t46 -120.5t55 -56.5t47.5 -15.5h67v-125h-30h-6h-39q-98 4 -172 29.5t-127.5 63.5t-89 84t-56.5 95q-49 109 -49 243v11v410h-176zM176 1196v305h334v-305h-334z" />
<glyph unicode="u" horiz-adv-x="1105" d="M0 635v307h297v-307q0 -182 20.5 -285.5t46 -157t51 -67.5t38.5 -14h14q12 0 37.5 14t51.5 67.5t46.5 157t20.5 285.5v307h297v-307q0 -170 -43 -305q-18 -57 -48 -113.5t-76 -102.5t-108.5 -76t-146.5 -36v-2h-80v2q-84 6 -145.5 37t-106.5 76t-75 101t-48 114 q-43 135 -43 305z" />
<glyph unicode="v" horiz-adv-x="1314" d="M0 946h322l387 -946h-322zM696 260l344 686h125l-411 -821z" />
<glyph unicode="w" d="M0 946h311l246 -774l111 299l53 -172l-109 -299h-311zM610 946h312l245 -774l285 774h119l-348 -946h-4h-308z" />
<glyph unicode="x" horiz-adv-x="1075" d="M0 0l254 319l61 -102l-174 -217h-141zM2 946h344l549 -946h-344zM584 731l170 215h143l-254 -319z" />
<glyph unicode="y" horiz-adv-x="1140" d="M-2 946h319l379 -735h-2l-98 -219l-53 -121q0 -2 -1 -3t-1 -3l-13 -25q-66 -135 -134 -204.5t-124 -100.5q-68 -37 -127 -37h-53v283h53q88 0 146.5 20.5t93.5 44.5q41 29 63 68l21 47l18 41zM682 442l225 504h117l-281 -624z" />
<glyph unicode="z" horiz-adv-x="1271" d="M2 2v2v111l582 610h409l-583 -612h704v-111h-1112zM2 836v110h1112v-110h-1112z" />
<glyph unicode="&#x2000;" horiz-adv-x="750" />
<glyph unicode="&#x2001;" horiz-adv-x="1501" />
<glyph unicode="&#x2002;" horiz-adv-x="750" />
<glyph unicode="&#x2003;" horiz-adv-x="1501" />
<glyph unicode="&#x2004;" horiz-adv-x="500" />
<glyph unicode="&#x2005;" horiz-adv-x="375" />
<glyph unicode="&#x2006;" horiz-adv-x="250" />
<glyph unicode="&#x2007;" horiz-adv-x="250" />
<glyph unicode="&#x2008;" horiz-adv-x="187" />
<glyph unicode="&#x2009;" horiz-adv-x="300" />
<glyph unicode="&#x200a;" horiz-adv-x="83" />
<glyph unicode="&#x202f;" horiz-adv-x="300" />
<glyph unicode="&#x205f;" horiz-adv-x="375" />
<glyph unicode="&#xe000;" horiz-adv-x="942" d="M0 0v942h942v-942h-942z" />
</font>
</defs>
</svg>
